<?xml version="1.0" encoding="UTF-8" ?>
<!DOCTYPE svg PUBLIC "-//W3C//DTD SVG 1.1//EN" "http://www.w3.org/Graphics/SVG/1.1/DTD/svg11.dtd">
<svg width="1200pt" height="1200pt" viewBox="0 0 1200 1200" version="1.1" xmlns="http://www.w3.org/2000/svg">
<g id="#ffffffff">
<path fill="#ffffff" opacity="1.00" d=" M 656.64 222.55 C 659.63 220.68 662.35 218.31 665.69 217.05 C 658.11 257.59 658.31 299.79 668.27 339.94 C 668.81 342.38 669.81 344.78 669.80 347.31 C 669.58 348.39 669.89 349.31 670.72 350.06 L 670.87 350.99 C 671.05 351.49 671.41 352.49 671.59 352.99 C 674.90 361.82 677.66 370.93 681.63 379.53 C 691.07 401.31 703.98 421.60 719.79 439.31 C 725.95 447.06 733.94 453.15 740.01 460.98 C 768.61 493.60 781.98 536.92 785.75 579.49 C 787.00 585.60 785.91 591.90 787.14 598.01 C 787.30 608.67 787.82 619.42 786.54 630.02 C 786.21 634.62 786.93 639.43 785.56 643.89 C 785.80 644.13 786.29 644.60 786.53 644.84 C 790.39 633.64 794.31 622.43 799.35 611.71 C 799.40 611.61 799.50 611.40 799.55 611.30 C 802.63 603.77 806.51 596.63 810.47 589.53 C 810.55 589.38 810.71 589.09 810.78 588.94 L 811.24 588.10 C 811.31 587.96 811.47 587.67 811.55 587.53 C 812.42 585.88 813.42 584.31 814.36 582.71 C 814.42 582.61 814.53 582.42 814.58 582.32 C 822.58 569.44 831.28 556.86 841.86 545.94 C 845.96 540.36 851.67 536.38 856.56 531.57 C 862.57 526.62 868.66 521.73 875.24 517.54 C 875.33 517.48 875.52 517.36 875.61 517.30 C 880.79 513.92 886.15 510.80 891.82 508.30 C 889.06 515.50 885.16 522.28 882.92 529.70 C 877.60 544.59 873.72 560.13 873.16 575.98 C 872.16 581.15 872.55 586.46 872.65 591.69 C 873.81 597.09 872.94 602.69 874.19 608.08 C 876.84 631.59 883.18 654.48 890.20 677.01 C 893.98 689.82 897.54 702.76 899.33 716.03 C 901.54 731.61 900.32 747.43 898.32 762.96 C 892.47 803.27 874.76 841.56 848.94 872.96 C 827.88 899.13 801.40 920.67 772.45 937.59 C 766.44 940.74 760.77 944.85 754.21 946.78 C 754.94 945.32 756.21 944.33 757.61 943.57 C 767.56 937.08 777.32 930.13 785.82 921.82 C 790.06 919.16 793.12 915.11 796.77 911.76 C 802.10 905.11 808.04 898.93 812.80 891.81 C 823.28 876.64 831.50 859.75 835.79 841.77 C 837.32 832.93 839.20 824.19 839.13 815.20 C 840.51 811.96 839.88 808.40 840.00 804.99 C 839.89 797.73 840.19 790.45 839.87 783.21 C 838.01 779.20 839.90 774.65 838.38 770.60 C 836.11 746.75 829.07 723.40 819.67 701.32 C 815.98 694.34 812.94 686.99 808.69 680.33 C 803.87 670.86 797.40 662.40 791.16 653.85 C 789.16 651.94 787.97 649.35 785.84 647.60 C 787.92 653.16 786.67 659.19 787.00 664.99 C 786.70 670.06 787.76 675.31 786.19 680.23 C 784.30 697.64 776.58 714.09 765.73 727.72 C 763.32 730.30 760.72 732.71 758.25 735.25 C 752.36 741.53 745.20 746.37 737.98 750.97 C 733.04 753.32 728.71 756.85 723.40 758.40 C 720.00 760.16 716.30 761.23 712.93 763.06 C 712.48 759.61 714.88 756.85 715.65 753.64 C 720.11 739.25 723.19 724.32 724.37 709.40 C 725.35 707.05 724.92 704.46 725.01 702.00 C 724.89 692.07 725.19 682.12 724.87 672.20 C 723.12 668.52 724.80 664.33 723.39 660.60 C 720.69 640.46 715.44 620.47 707.13 601.87 C 705.37 597.12 702.61 592.81 700.98 588.02 C 697.92 583.85 696.38 578.80 693.42 574.58 C 683.49 557.11 670.98 541.24 657.76 526.23 C 649.84 518.49 642.19 510.46 634.17 502.82 C 630.80 500.95 628.69 497.55 625.40 495.59 C 611.13 483.33 595.93 472.14 580.20 461.79 C 572.90 456.93 565.20 452.69 557.92 447.81 C 558.32 452.84 559.74 457.73 560.19 462.77 C 561.95 467.09 560.00 471.92 561.87 476.20 C 562.09 483.72 562.09 491.28 561.87 498.80 C 560.04 502.80 561.86 507.33 560.40 511.41 C 556.75 538.31 547.16 564.84 530.61 586.60 C 524.84 595.61 516.68 602.64 509.25 610.25 C 503.69 616.04 497.51 621.27 492.75 627.77 C 484.62 638.59 477.78 650.52 473.36 663.37 C 469.76 674.17 466.83 685.30 465.61 696.60 C 464.19 700.33 465.87 704.53 464.13 708.20 C 463.82 718.46 464.09 728.74 463.99 739.01 C 463.91 741.82 466.65 745.33 463.30 747.30 C 461.83 739.74 457.63 733.14 455.00 725.99 C 448.48 713.61 441.51 701.32 432.29 690.69 C 428.07 684.69 422.22 680.10 417.27 674.74 C 406.94 665.81 395.60 657.75 382.84 652.68 C 389.12 664.28 393.95 676.73 396.23 689.76 C 397.69 693.97 396.61 698.46 397.12 702.79 C 397.59 704.39 398.40 706.05 397.89 707.76 C 395.85 712.41 398.03 717.67 396.39 722.40 C 394.57 738.48 389.63 754.08 384.37 769.37 C 381.38 778.44 378.79 787.68 377.07 797.08 C 377.19 799.81 376.73 802.45 376.03 805.07 C 376.26 810.09 375.19 815.36 376.87 820.20 C 377.55 841.44 385.35 861.98 395.68 880.33 C 400.59 888.26 405.94 895.94 411.75 903.23 C 414.88 905.84 416.68 909.59 419.74 912.27 C 423.02 915.31 425.89 918.80 429.40 921.60 C 432.34 923.23 434.17 926.22 437.00 928.01 C 448.39 937.23 460.49 945.76 473.60 952.40 C 478.18 955.39 483.19 957.76 488.31 959.70 C 499.06 965.11 510.58 968.70 521.98 972.50 L 522.80 973.63 C 518.74 973.59 514.88 972.27 511.01 971.21 C 460.82 958.12 413.16 933.51 375.44 897.68 C 371.53 894.55 367.98 890.96 364.88 887.03 C 347.53 868.99 333.07 848.13 322.29 825.52 C 314.48 809.34 308.46 792.21 305.25 774.52 C 299.66 739.33 298.87 703.30 303.57 667.97 C 311.10 608.90 333.35 551.61 368.63 503.56 C 369.04 503.21 369.86 502.52 370.27 502.18 C 369.03 509.41 369.47 516.77 368.60 524.04 C 368.95 542.29 370.92 560.76 377.08 578.07 C 377.68 580.14 378.80 582.12 378.89 584.30 C 379.12 584.80 379.58 585.80 379.81 586.30 L 380.30 587.10 C 380.36 587.23 380.50 587.48 380.57 587.60 C 382.79 592.21 384.74 596.95 387.42 601.34 C 387.47 601.43 387.58 601.63 387.64 601.73 C 388.51 603.28 389.49 604.79 390.41 606.34 C 390.46 606.44 390.58 606.63 390.64 606.73 C 402.66 625.37 419.33 640.96 438.36 652.31 C 438.46 652.37 438.64 652.48 438.74 652.54 C 440.30 653.42 441.85 654.34 443.39 655.31 C 443.49 655.36 443.68 655.47 443.77 655.53 C 449.38 658.69 455.38 661.13 460.95 664.34 C 461.42 664.55 462.36 664.98 462.84 665.20 C 463.86 665.29 464.89 665.45 465.91 665.68 C 456.76 641.77 452.43 616.24 449.98 590.87 C 449.23 585.93 449.90 580.89 448.89 575.98 C 447.71 542.56 451.06 508.99 459.31 476.54 C 474.94 414.42 508.49 357.73 551.75 310.88 C 566.55 294.72 582.51 279.63 599.25 265.53 C 599.34 265.47 599.51 265.33 599.60 265.26 C 604.62 260.79 609.96 256.70 615.23 252.53 C 615.32 252.47 615.49 252.33 615.58 252.27 C 621.08 247.95 626.57 243.62 632.27 239.56 C 632.36 239.50 632.54 239.37 632.63 239.31 C 640.53 233.57 648.47 227.89 656.64 222.55 Z" />
<path fill="#ffffff" opacity="1.00" d=" M 600.33 691.31 C 618.81 680.24 638.55 671.46 658.29 662.91 C 658.16 663.33 657.90 664.16 657.77 664.58 C 653.35 669.02 650.28 674.53 646.41 679.42 C 624.88 709.67 605.01 741.93 594.99 777.99 C 593.42 784.88 591.12 791.68 590.84 798.79 C 589.27 802.57 590.49 806.71 589.70 810.64 C 589.05 813.76 590.20 816.86 590.00 820.01 C 591.50 838.31 603.34 854.92 619.20 863.80 C 623.10 866.27 627.63 867.10 632.08 868.02 C 636.96 867.68 641.77 865.71 645.24 862.19 C 647.53 858.87 650.32 855.94 652.62 852.62 C 656.28 845.96 659.83 838.97 660.19 831.23 C 662.14 826.03 660.37 820.60 659.63 815.39 C 657.64 807.94 653.95 800.93 648.78 795.22 C 647.29 793.45 644.88 792.79 643.64 790.82 C 646.39 790.99 648.32 793.15 650.67 794.32 C 661.86 799.94 672.22 807.16 681.76 815.24 C 694.16 827.16 703.62 842.38 707.89 859.12 C 709.54 863.66 709.59 868.57 710.85 873.21 C 711.37 876.86 710.32 880.71 711.87 884.20 C 711.89 888.84 712.70 893.73 711.13 898.20 C 710.60 902.19 711.71 906.37 710.16 910.21 C 709.76 918.02 707.40 925.59 704.97 932.97 C 701.97 941.89 697.95 950.65 691.80 957.86 C 689.83 960.80 687.44 963.48 684.41 965.36 C 677.20 971.71 668.52 976.14 659.63 979.63 C 653.07 981.45 646.34 982.61 639.63 983.74 C 632.80 984.95 625.88 983.84 619.01 984.22 C 614.10 984.45 609.13 984.65 604.31 983.55 C 585.60 980.49 567.47 973.21 552.41 961.60 C 531.80 945.62 517.17 923.31 506.00 900.00 C 500.62 889.84 497.21 878.82 494.26 867.76 C 492.71 859.57 490.47 851.46 490.97 843.07 C 489.66 838.92 489.84 834.51 490.13 830.21 C 492.00 825.92 490.04 821.09 491.81 816.78 C 495.05 792.82 507.14 770.87 522.59 752.59 C 525.37 748.13 530.10 745.33 533.00 740.98 C 534.41 738.41 537.50 737.55 539.27 735.27 C 544.21 729.79 550.14 725.46 555.77 720.76 C 569.78 709.75 584.66 699.81 600.33 691.31 Z" />
</g>
<g id="#e6d3c93e">
<path fill="#e6d3c9" opacity="0.24" d=" M 632.27 239.56 C 632.36 239.50 632.54 239.37 632.63 239.31 C 632.54 239.37 632.36 239.50 632.27 239.56 Z" />
<path fill="#e6d3c9" opacity="0.24" d=" M 615.23 252.53 C 615.32 252.47 615.49 252.33 615.58 252.27 C 615.49 252.33 615.32 252.47 615.23 252.53 Z" />
<path fill="#e6d3c9" opacity="0.24" d=" M 599.25 265.53 C 599.34 265.47 599.51 265.33 599.60 265.26 C 599.51 265.33 599.34 265.47 599.25 265.53 Z" />
<path fill="#e6d3c9" opacity="0.24" d=" M 669.80 347.31 C 671.40 347.73 671.70 348.64 670.72 350.06 C 669.89 349.31 669.58 348.39 669.80 347.31 Z" />
<path fill="#e6d3c9" opacity="0.24" d=" M 670.87 350.99 C 671.17 351.30 671.78 351.94 672.08 352.25 L 671.59 352.99 C 671.41 352.49 671.05 351.49 670.87 350.99 Z" />
<path fill="#e6d3c9" opacity="0.24" d=" M 875.24 517.54 C 875.33 517.48 875.52 517.36 875.61 517.30 C 875.52 517.36 875.33 517.48 875.24 517.54 Z" />
<path fill="#e6d3c9" opacity="0.24" d=" M 814.36 582.71 C 814.42 582.61 814.53 582.42 814.58 582.32 C 814.53 582.42 814.42 582.61 814.36 582.71 Z" />
<path fill="#e6d3c9" opacity="0.24" d=" M 378.89 584.30 L 379.75 584.48 C 379.77 584.94 379.79 585.85 379.81 586.30 C 379.58 585.80 379.12 584.80 378.89 584.30 Z" />
<path fill="#e6d3c9" opacity="0.24" d=" M 380.30 587.10 C 380.36 587.23 380.50 587.48 380.57 587.60 C 380.50 587.48 380.36 587.23 380.30 587.10 Z" />
<path fill="#e6d3c9" opacity="0.24" d=" M 811.24 588.10 C 811.31 587.96 811.47 587.67 811.55 587.53 C 811.47 587.67 811.31 587.96 811.24 588.10 Z" />
<path fill="#e6d3c9" opacity="0.24" d=" M 810.47 589.53 C 810.55 589.38 810.71 589.09 810.78 588.94 C 810.71 589.09 810.55 589.38 810.47 589.53 Z" />
<path fill="#e6d3c9" opacity="0.24" d=" M 387.42 601.34 C 387.47 601.43 387.58 601.63 387.64 601.73 C 387.58 601.63 387.47 601.43 387.42 601.34 Z" />
<path fill="#e6d3c9" opacity="0.24" d=" M 390.41 606.34 C 390.46 606.44 390.58 606.63 390.64 606.73 C 390.58 606.63 390.46 606.44 390.41 606.34 Z" />
<path fill="#e6d3c9" opacity="0.24" d=" M 799.35 611.71 C 799.40 611.61 799.50 611.40 799.55 611.30 C 799.50 611.40 799.40 611.61 799.35 611.71 Z" />
<path fill="#e6d3c9" opacity="0.24" d=" M 438.36 652.31 C 438.46 652.37 438.64 652.48 438.74 652.54 C 438.64 652.48 438.46 652.37 438.36 652.31 Z" />
<path fill="#e6d3c9" opacity="0.24" d=" M 443.39 655.31 C 443.49 655.36 443.68 655.47 443.77 655.53 C 443.68 655.47 443.49 655.36 443.39 655.31 Z" />
<path fill="#e6d3c9" opacity="0.24" d=" M 460.95 664.34 L 461.72 663.87 L 462.68 664.32 L 462.84 665.20 C 462.36 664.98 461.42 664.55 460.95 664.34 Z" />
<path fill="#e6d3c9" opacity="0.24" d=" M 705.25 968.10 C 708.16 966.53 705.40 971.43 705.25 968.10 Z" />
<path fill="#e6d3c9" opacity="0.24" d=" M 639.63 983.74 C 646.34 982.61 653.07 981.45 659.63 979.63 C 662.42 980.20 665.17 979.17 667.97 979.22 C 661.17 980.84 654.12 981.20 647.30 982.80 C 633.09 986.06 618.44 984.34 604.01 984.72 C 597.35 985.00 590.68 984.75 584.02 984.54 C 590.75 983.73 597.65 984.96 604.31 983.55 C 609.13 984.65 614.10 984.45 619.01 984.22 C 625.88 983.84 632.80 984.95 639.63 983.74 Z" />
</g>
</svg>
