<?xml version="1.0" encoding="UTF-8" ?>
<!DOCTYPE svg PUBLIC "-//W3C//DTD SVG 1.1//EN" "http://www.w3.org/Graphics/SVG/1.1/DTD/svg11.dtd">
<svg width="821pt" height="289pt" viewBox="0 0 821 289" version="1.1" xmlns="http://www.w3.org/2000/svg">
<g id="#ffffffff">
<path fill="#ffffff" opacity="1.00" d=" M 36.36 5.15 C 42.37 3.03 48.52 1.00 54.94 0.74 C 62.28 0.54 69.74 0.26 76.92 2.03 C 89.82 4.49 101.60 12.84 107.67 24.57 C 111.43 30.10 112.80 36.74 115.07 42.94 C 106.02 45.06 97.12 47.77 88.17 50.26 C 87.73 48.31 87.10 46.41 86.51 44.51 C 83.64 38.16 80.39 31.40 74.06 27.82 C 71.18 25.84 67.64 25.41 64.37 24.47 C 54.97 23.77 44.83 27.39 39.26 35.24 C 35.21 40.20 33.04 46.37 31.77 52.58 C 30.10 61.62 29.60 70.98 31.13 80.09 C 32.33 93.20 38.50 107.46 51.52 112.60 C 58.59 115.33 66.40 115.32 73.47 112.61 C 78.28 110.74 81.82 106.86 85.08 103.03 C 87.63 99.23 88.83 94.73 89.96 90.35 C 82.20 90.46 74.44 90.33 66.68 90.43 C 66.80 83.29 66.71 76.14 66.74 69.00 C 83.58 69.00 100.42 69.00 117.26 69.00 C 117.28 91.09 117.24 113.19 117.28 135.28 C 109.52 135.24 101.76 135.27 94.00 135.26 C 93.95 129.05 94.11 122.84 93.89 116.63 C 87.41 132.75 68.20 140.27 51.80 137.53 C 46.17 137.07 40.66 135.78 35.36 133.85 C 22.24 128.68 12.49 117.44 7.11 104.63 C 6.97 104.11 6.68 103.07 6.54 102.55 C 2.68 92.84 1.69 82.32 0.98 72.01 C 0.89 63.76 1.53 55.47 3.42 47.43 C 7.06 29.27 18.94 12.36 36.36 5.15 Z" />
<path fill="#ffffff" opacity="1.00" d=" M 169.47 4.53 C 180.27 0.44 192.25 -0.39 203.58 1.45 C 205.26 1.73 206.96 1.94 208.59 2.46 C 210.64 2.92 212.64 3.55 214.65 4.16 C 221.50 7.38 228.69 10.49 233.99 16.08 C 241.34 22.61 246.60 31.20 249.97 40.37 C 254.79 52.99 254.84 66.72 254.14 80.03 C 253.05 88.47 250.95 96.78 247.37 104.52 C 241.97 115.22 233.76 124.73 222.99 130.27 C 208.35 138.43 190.45 140.00 174.42 135.51 C 158.01 131.23 144.03 119.21 136.92 103.88 C 128.64 85.57 127.90 64.43 132.99 45.14 C 136.71 32.00 144.35 19.62 155.68 11.75 C 159.41 9.27 163.33 7.09 167.35 5.12 C 167.88 4.97 168.94 4.68 169.47 4.53 M 173.03 31.16 C 166.03 36.55 162.54 45.26 160.47 53.60 C 160.20 55.26 160.02 56.95 159.52 58.56 C 158.14 74.31 159.12 91.87 169.65 104.58 C 174.41 110.20 181.37 113.55 188.61 114.52 C 195.93 115.41 203.40 113.35 209.57 109.42 C 214.97 105.32 219.02 99.70 221.58 93.45 C 226.68 79.76 226.99 64.58 223.46 50.49 C 220.63 40.13 213.78 30.31 203.45 26.41 C 202.44 26.12 201.44 25.80 200.45 25.47 C 191.13 23.18 180.42 24.70 173.03 31.16 Z" />
<path fill="#ffffff" opacity="1.00" d=" M 310.38 2.13 C 323.73 -0.62 337.94 -0.02 350.65 5.15 C 362.94 10.34 373.48 19.66 379.58 31.58 C 389.28 49.57 389.92 71.06 385.95 90.73 L 385.44 91.41 C 385.13 93.54 384.49 95.60 383.82 97.64 C 378.45 113.11 366.68 126.23 351.65 132.85 C 345.64 134.91 339.59 137.16 333.18 137.50 C 326.57 138.86 319.89 137.51 313.28 136.99 L 312.53 136.48 C 309.05 135.96 305.71 134.83 302.34 133.84 C 293.30 129.84 284.52 124.47 278.52 116.46 C 273.84 111.33 271.12 104.85 268.17 98.65 C 262.49 81.86 262.19 63.49 266.09 46.28 L 266.57 45.53 C 267.23 42.75 268.28 40.08 269.15 37.35 C 273.39 27.57 279.87 18.66 288.54 12.37 C 294.92 7.32 302.68 4.49 310.38 2.13 M 319.98 25.05 C 307.82 26.76 298.78 37.20 295.48 48.55 C 291.20 62.68 291.53 78.06 296.09 92.09 C 299.56 102.43 307.96 111.66 318.96 113.80 C 329.72 116.49 341.95 112.70 348.99 104.04 C 354.10 97.52 357.04 89.56 358.48 81.46 C 359.23 71.87 359.66 62.04 357.51 52.59 C 357.06 51.25 356.75 49.87 356.49 48.48 C 356.06 47.53 355.62 46.58 355.18 45.64 C 352.14 36.05 344.10 28.26 334.45 25.46 C 329.65 24.85 324.77 23.63 319.98 25.05 Z" />
<path fill="#ffffff" opacity="1.00" d=" M 400.60 2.85 C 416.06 2.93 431.53 2.76 446.99 2.93 C 454.29 3.52 461.57 4.46 468.72 6.10 L 469.47 6.57 C 472.26 7.21 474.93 8.26 477.65 9.15 C 484.96 12.39 491.87 16.76 497.31 22.66 C 504.52 31.05 508.91 41.60 510.80 52.44 C 511.92 60.94 512.90 69.62 511.52 78.16 C 510.66 89.61 507.46 101.16 500.79 110.64 C 489.61 127.07 469.05 133.96 450.00 135.19 C 433.53 135.40 417.05 135.14 400.57 135.32 C 400.65 91.16 400.59 47.00 400.60 2.85 M 429.23 27.23 C 429.28 55.45 429.28 83.67 429.24 111.88 C 441.16 111.55 453.83 113.29 464.95 107.92 C 472.69 104.71 478.17 97.41 480.46 89.50 C 480.75 88.12 481.07 86.75 481.51 85.41 C 483.52 73.01 483.88 59.93 479.92 47.85 C 477.36 39.99 471.16 33.56 463.50 30.50 C 452.60 26.07 440.69 27.50 429.23 27.23 Z" />
<path fill="#ffffff" opacity="1.00" d=" M 42.44 151.13 C 52.28 150.46 62.37 150.04 71.97 152.78 C 86.09 156.24 98.58 165.39 106.34 177.65 C 99.83 182.97 92.41 187.26 86.51 193.26 C 80.93 185.10 73.05 178.29 63.45 175.42 C 61.75 175.15 59.96 175.15 58.39 174.36 C 51.78 173.85 44.35 173.77 38.91 178.15 C 33.87 181.44 33.15 188.39 35.39 193.60 C 38.71 197.92 43.19 201.12 48.45 202.61 C 57.95 206.25 68.05 208.09 77.62 211.54 C 88.41 215.03 99.26 220.74 105.35 230.70 C 109.94 238.40 110.10 247.97 108.50 256.54 C 108.20 257.86 107.93 259.20 107.45 260.48 C 106.72 261.78 106.22 263.20 105.84 264.64 C 104.34 266.30 103.61 268.46 102.31 270.24 C 98.83 274.11 95.15 277.91 90.50 280.37 C 84.91 283.31 78.84 285.55 72.57 286.44 C 70.05 287.49 67.24 287.08 64.59 287.40 C 62.20 288.51 59.49 287.83 56.96 288.01 C 54.45 287.85 51.78 288.48 49.41 287.40 C 46.76 287.11 43.99 287.44 41.45 286.49 C 31.99 284.78 23.00 280.60 15.52 274.56 C 8.84 269.78 4.41 262.63 0.30 255.68 C 7.24 250.70 14.97 247.02 22.15 242.42 C 27.72 253.98 38.92 262.59 51.59 264.63 C 61.87 265.73 75.27 264.90 80.68 254.54 C 80.87 250.86 81.76 246.75 79.64 243.44 C 76.88 240.10 73.69 236.83 69.44 235.51 C 52.40 228.18 32.55 227.11 17.54 215.37 C 13.82 213.05 11.72 209.07 9.16 205.65 C 7.99 202.32 7.04 198.93 6.11 195.54 C 5.97 191.53 5.33 187.32 6.54 183.43 C 6.77 180.29 7.76 177.29 8.99 174.42 C 12.47 166.28 19.13 159.79 27.00 155.87 C 31.93 153.65 37.20 152.31 42.44 151.13 Z" />
<path fill="#ffffff" opacity="1.00" d=" M 265.45 151.13 C 276.21 150.33 287.26 150.11 297.63 153.54 C 310.67 157.39 322.08 166.17 329.30 177.66 C 323.87 181.77 318.41 185.87 312.96 189.96 C 311.66 190.89 310.59 192.29 308.92 192.53 C 304.09 185.54 297.46 179.69 289.53 176.47 C 286.90 175.41 284.04 175.29 281.39 174.36 C 275.18 173.81 268.53 173.93 263.00 177.16 C 258.55 179.82 256.32 185.34 257.34 190.39 C 257.79 191.43 258.15 192.50 258.42 193.60 C 263.53 200.90 272.48 203.24 280.56 205.59 C 293.84 209.46 307.86 212.44 319.27 220.70 C 323.48 224.28 327.50 228.32 329.81 233.42 C 333.03 241.99 333.32 251.77 330.42 260.46 C 329.76 261.79 329.20 263.17 328.84 264.62 C 326.75 267.33 325.28 270.50 322.83 272.92 C 315.66 280.39 305.74 284.92 295.57 286.44 C 293.04 287.49 290.23 287.07 287.57 287.40 C 285.21 288.52 282.52 287.82 280.02 288.01 C 277.48 287.84 274.79 288.48 272.40 287.42 C 269.75 287.12 266.99 287.42 264.44 286.49 C 246.86 283.35 231.05 271.66 223.31 255.53 C 230.40 250.88 237.82 246.77 245.09 242.43 C 248.85 249.65 254.41 256.05 261.53 260.10 C 265.66 262.26 270.08 263.69 274.62 264.63 C 284.35 265.62 296.07 265.03 302.57 256.61 C 302.84 255.53 303.21 254.50 303.69 253.51 C 304.03 250.17 304.55 246.44 302.65 243.46 C 299.88 240.11 296.66 236.84 292.41 235.49 C 277.50 229.06 260.75 227.61 246.52 219.44 C 243.59 218.35 241.47 216.06 239.04 214.21 C 235.78 212.25 234.51 208.44 232.14 205.64 C 231.77 204.19 231.26 202.77 230.53 201.46 C 229.78 199.55 229.94 197.42 229.12 195.54 C 228.21 188.03 229.42 180.41 232.21 173.41 C 235.81 165.91 242.06 160.11 249.30 156.16 C 254.46 153.82 259.95 152.33 265.45 151.13 Z" />
<path fill="#ffffff" opacity="1.00" d=" M 730.42 161.23 C 738.02 155.22 747.48 152.08 757.01 150.90 C 765.55 150.58 774.26 150.19 782.59 152.45 C 793.44 154.67 802.93 160.91 810.91 168.36 C 813.39 171.47 815.84 174.59 818.32 177.70 C 811.14 182.24 804.88 188.06 797.89 192.87 C 793.74 186.16 787.47 181.13 780.59 177.43 C 773.89 174.93 766.79 173.30 759.61 174.39 C 754.12 175.39 748.78 178.22 746.27 183.43 C 746.10 186.11 746.10 188.80 746.26 191.48 C 750.04 200.39 760.26 202.71 768.54 205.50 C 769.90 205.82 771.26 206.14 772.63 206.52 C 780.76 208.61 788.81 211.05 796.60 214.19 C 804.18 217.44 811.33 222.11 816.10 228.97 C 818.55 232.90 819.91 237.33 821.00 241.80 L 821.00 254.31 C 819.92 257.71 819.21 261.26 817.49 264.41 C 813.59 272.77 806.06 279.23 797.53 282.47 C 796.53 282.92 795.55 283.39 794.58 283.87 C 778.09 289.20 759.84 289.54 743.39 283.84 C 742.41 283.38 741.44 282.92 740.47 282.47 C 727.91 277.55 717.97 267.19 711.88 255.30 C 719.14 251.14 726.58 247.20 733.41 242.36 C 739.09 251.93 747.54 260.48 758.55 263.52 C 759.90 263.83 761.26 264.15 762.61 264.56 C 768.96 265.29 775.36 264.97 781.59 263.57 C 783.78 262.45 786.09 261.51 788.12 260.10 C 790.39 258.47 791.43 255.81 792.73 253.45 C 792.86 251.18 792.90 248.90 792.71 246.64 C 792.27 245.56 791.88 244.47 791.54 243.37 C 788.84 240.04 785.44 237.20 781.47 235.54 C 770.18 230.75 757.92 228.87 746.50 224.43 C 745.97 224.29 744.89 224.01 744.36 223.87 C 742.75 223.04 741.13 222.25 739.54 221.42 C 739.00 221.28 737.92 221.00 737.37 220.86 C 731.79 217.20 725.52 213.82 722.26 207.68 C 713.79 192.90 717.16 172.12 730.42 161.23 Z" />
<path fill="#ffffff" opacity="1.00" d=" M 107.38 152.89 C 117.20 152.88 127.03 152.94 136.86 152.86 C 147.60 169.63 157.05 187.29 167.53 204.26 C 178.31 187.47 187.85 169.88 198.23 152.83 C 208.04 152.99 217.85 152.85 227.66 152.90 C 212.60 178.34 197.13 203.58 182.13 229.02 C 181.83 247.74 182.09 266.48 182.00 285.21 C 172.30 285.21 162.59 285.21 152.89 285.21 C 152.91 267.13 152.88 249.04 152.90 230.96 C 153.22 228.75 151.84 226.96 150.67 225.27 C 136.28 201.12 121.68 177.09 107.38 152.89 Z" />
<path fill="#ffffff" opacity="1.00" d=" M 338.00 152.90 C 374.07 152.89 410.14 152.90 446.21 152.89 C 446.21 161.00 446.19 169.11 446.22 177.22 C 432.90 177.16 419.58 177.27 406.25 177.17 C 406.40 213.20 406.23 249.23 406.34 285.26 C 396.82 285.16 387.30 285.22 377.78 285.22 C 377.83 249.21 377.74 213.19 377.82 177.18 C 364.55 177.25 351.27 177.19 338.00 177.21 C 338.00 169.10 338.00 161.00 338.00 152.90 Z" />
<path fill="#ffffff" opacity="1.00" d=" M 457.79 152.89 C 487.86 152.90 517.93 152.89 548.00 152.90 C 548.00 161.00 548.00 169.10 548.00 177.21 C 527.67 177.21 507.33 177.22 487.00 177.21 C 487.00 186.77 487.00 196.33 487.00 205.90 C 501.70 205.89 516.40 205.90 531.11 205.89 C 531.10 213.60 531.10 221.30 531.10 229.00 C 516.40 229.00 501.70 229.00 487.00 229.00 C 487.00 239.97 487.00 250.93 487.00 261.90 C 508.37 261.89 529.74 261.90 551.11 261.89 C 551.10 269.67 551.10 277.44 551.11 285.21 C 520.00 285.22 488.89 285.19 457.78 285.22 C 457.81 241.11 457.78 197.00 457.79 152.89 Z" />
<path fill="#ffffff" opacity="1.00" d=" M 563.90 152.89 C 576.52 152.95 589.15 152.80 601.78 152.96 C 603.21 153.99 603.20 155.93 603.78 157.45 C 604.69 161.53 606.21 165.43 607.41 169.43 C 608.39 172.77 609.28 176.14 610.43 179.44 C 612.67 187.12 614.93 194.80 617.41 202.42 C 618.38 205.77 619.28 209.15 620.44 212.44 C 621.54 217.18 623.51 221.67 624.47 226.45 C 625.59 229.39 626.41 232.44 627.41 235.43 C 628.62 240.25 630.50 244.87 631.56 249.72 C 631.79 249.86 632.26 250.15 632.49 250.29 C 635.16 240.67 638.03 231.10 640.58 221.45 C 645.56 203.78 650.76 186.16 655.59 168.45 C 656.35 166.13 656.82 163.74 657.59 161.43 C 658.48 158.61 659.08 155.70 660.03 152.89 C 673.09 152.90 686.15 152.90 699.21 152.89 C 699.22 197.00 699.19 241.11 699.22 285.22 C 689.81 285.19 680.41 285.22 671.00 285.21 C 670.85 255.32 671.29 225.41 670.78 195.53 C 669.94 197.45 670.20 199.62 669.49 201.58 C 665.66 219.65 659.28 237.04 653.47 254.55 C 653.19 255.91 652.93 257.28 652.44 258.59 C 652.10 259.58 651.76 260.58 651.41 261.57 C 651.09 262.57 650.76 263.57 650.40 264.56 C 648.35 271.47 645.61 278.19 643.84 285.18 C 635.27 285.29 626.71 285.10 618.15 285.28 C 617.41 284.13 616.91 282.88 616.57 281.58 C 616.22 280.58 615.89 279.58 615.57 278.58 C 612.95 269.13 609.50 259.94 606.60 250.58 C 606.23 249.58 605.89 248.58 605.58 247.57 C 605.22 246.58 604.89 245.59 604.57 244.59 C 600.11 229.30 594.22 214.35 591.56 198.59 C 590.91 196.97 590.83 195.23 590.49 193.55 C 590.15 194.63 590.02 195.74 590.08 196.88 C 590.14 226.33 590.08 255.77 590.11 285.21 C 581.37 285.21 572.63 285.21 563.89 285.21 C 563.90 241.11 563.89 197.00 563.90 152.89 Z" />
</g>
</svg>
